PathFileType	4	(X/Y/Z)	Patient4_TMGait_0pt7_02_right_32.trc.trc
DataRate	CameraRate	NumFrames	NumMarkers	Units	OrigDataRate	OrigDataStartFrame	OrigNumFrames
87.500000000000	87.500000000000	6	33	mm	87.500000000000	18	       141
Frame#	Time	Sacral			L.Shoulder			Chest			R.Shoulder			Neck			R.ASIS			L.ASIS			R.Thigh.Superior			R.Thigh.Lateral			R.Thigh.Inferior			R.Patella			L.Thigh.Superior			L.Thigh.Lateral			L.Thigh.Inferior			L.Patella			L.Shank.Superior			L.Shank.Lateral			L.Shank.Inferior			R.Shank.Superior			R.Shank.Lateral			R.Shank.Inferior			R.Heel			R.Midfoot.Superior			R.Midfoot.Lateral			R.Toe			L.Heel			L.Midfoot.Lateral			L.Midfoot.Superior			L.Toe			L.Elbow			L.Wrist			R.Elbow			R.Wrist			
		X1	Y1	Z1	X2	Y2	Z2	X3	Y3	Z3	X4	Y4	Z4	X5	Y5	Z5	X6	Y6	Z6	X7	Y7	Z7	X8	Y8	Z8	X9	Y9	Z9	X10	Y10	Z10	X11	Y11	Z11	X12	Y12	Z12	X13	Y13	Z13	X14	Y14	Z14	X15	Y15	Z15	X16	Y16	Z16	X17	Y17	Z17	X18	Y18	Z18	X19	Y19	Z19	X20	Y20	Z20	X21	Y21	Z21	X22	Y22	Z22	X23	Y23	Z23	X24	Y24	Z24	X25	Y25	Z25	X26	Y26	Z26	X27	Y27	Z27	X28	Y28	Z28	X29	Y29	Z29	X30	Y30	Z30	X31	Y31	Z31	X32	Y32	Z32	X33	Y33	Z33	

18	36.234285714286	832.292312765212	1008.744113244849	438.530415892976	1057.634986717323	1425.023018740477	263.643043414151	1143.498231964040	1348.247246615664	431.443198728400	1052.877525948722	1433.215558814755	596.468038175218	1050.542987576342	1484.848025615953	415.367640081112	1049.638191597087	937.805150709932	572.380552536230	1052.909443575674	952.580836053334	293.557675612121	1126.330162196412	775.491014456169	543.352364949557	1092.305604105191	653.233504039734	619.243880219213	1180.235865553819	618.111315482501	537.183477588701	1219.032417965130	536.306655220643	556.622689589962	1054.035515053724	727.171529354966	329.852214555976	939.727821334999	632.444239950735	264.310748598650	995.954260266653	539.246953192228	332.905699829289	979.866609027644	473.370387142408	343.983057801723	946.043920014265	407.060143868703	335.846072732107	845.599728083177	304.671409688130	280.254245264458	872.858935465951	189.915383086669	358.320464587555	1204.663338648390	447.763646923359	567.526119550113	1156.248235052804	333.499548681135	634.105857372329	1226.029779722188	248.393760322119	581.009528627939	1137.285568419308	58.578743100275	557.316322929410	1300.507351535432	136.341665102799	591.486021965565	1226.423836666582	54.870550753382	623.614681518676	1427.023694693401	101.808351827945	606.356755126843	726.396899530992	42.812163979586	393.253870999208	805.608830815362	36.861925683077	318.973441279329	888.107448416896	95.674929563768	350.731406042188	1017.096909138794	39.836797908849	331.691153330262	1161.672925372360	1124.910195885222	102.478948554694	1399.184602341832	1132.919739469855	196.476408996177	919.478481275680	1117.320483874292	721.194211579105	888.659534954571	858.127951381806	741.886264388311	
19	36.245714285714	834.676754210577	1006.786154531584	440.647538386505	1056.812199255850	1423.933130194507	265.400627913127	1144.008850978756	1347.358591119563	432.572946010898	1053.945305743050	1431.900408722847	598.151449063812	1050.387203725037	1483.520270941174	417.064210694965	1052.530834750116	935.558040955814	573.401296530885	1054.263580847139	951.539243706848	294.785695713824	1126.958605055049	770.783206887043	544.895394960642	1090.190825833314	648.623878238939	620.229312562479	1178.096379297578	612.888933277218	538.367783077020	1215.311181348838	532.009736671361	556.717671775206	1052.977306038599	725.438703492105	330.236257723249	937.072375786140	632.146815475243	264.636657818149	992.207348915375	538.158718300889	332.912130357272	975.449362424230	472.289141695798	343.749603334925	940.937240492907	406.414001484652	335.652292958118	839.139425443391	305.110629955004	280.402769953517	865.761062153155	189.947741170894	358.136301112778	1202.540838307933	443.660278636661	567.629560621382	1155.495839426009	328.294421801197	633.158478095779	1227.392255579722	244.646762027222	580.159569986525	1141.918230264671	54.105632752089	554.655508967260	1304.084809497451	133.073486902140	590.539904793560	1230.331953832363	51.248998639150	621.823482792207	1430.673615622151	99.509478675725	606.585631777949	718.417202199384	43.534658160903	393.160194324479	797.629921325737	37.175796026806	318.959111272222	880.270636430632	95.786898050199	350.590539424960	1009.045255061322	39.683005129647	331.615489209655	1162.766747510270	1125.058603336003	103.840577370813	1398.690677779912	1140.651454874373	199.821116008247	917.414989579091	1117.947880116510	722.843132370822	884.694296727115	858.962700191890	741.327597905866	
20	36.257142857143	837.205765607164	1004.762051421642	443.071101830233	1055.860587299949	1422.768868811549	267.295493886868	1144.571832796326	1346.480836864708	433.798146149788	1055.097339894326	1430.524865301374	599.990941891441	1050.199334232807	1482.133062235765	418.922744597924	1055.697739689452	933.229532757489	574.456631016975	1055.775363553479	950.387180710961	296.248100948783	1128.173782597122	766.266994561569	546.388069201310	1088.611200515843	644.131828798375	620.947963906106	1176.561012747357	607.972176156658	539.345507199913	1212.064765933879	527.602946578247	556.559513361314	1052.239716170945	723.695101128751	330.597949587362	934.792527617245	631.784059316743	265.132927651851	989.043207435094	537.015521428606	332.973309995299	971.655527205988	471.050067332586	343.595283594359	936.330881809196	405.645386256411	335.542463025581	832.989669391753	305.623722663937	280.642855619147	858.824819420203	189.986996150730	357.974321797585	1200.291043614213	439.264006575143	567.437654211138	1153.670803878336	323.259938321926	631.879876205772	1226.852906762404	240.545001855066	579.010153289999	1142.964200769020	50.377816162879	551.858798114033	1304.596802281496	129.077787421249	589.271599524822	1230.526736087138	47.891601034969	620.033863918915	1430.968184238230	95.478024769101	606.799077392905	710.458193209332	44.418556230160	393.056701465119	789.671164654402	37.561256988239	318.931820471310	872.486038386000	95.941789920482	350.427988824174	1001.004867329601	39.513515236744	331.527453329343	1163.274862102852	1124.881963776930	105.251363820195	1397.551040971597	1147.106969745308	203.040829624420	915.706036939390	1118.404945112374	724.680544142638	881.846098371928	859.441153857560	740.877837417976	
21	36.268571428571	839.813825948223	1002.729245978246	445.765080577995	1054.839560202208	1421.559710997291	269.326778089618	1145.204101174451	1345.623164774381	435.133621167046	1056.343182548261	1429.111960295147	601.988005160049	1050.030904182421	1480.725031918469	420.949581211094	1059.074024872612	930.899685239852	575.546542760293	1057.423850675493	949.151552653819	297.902030212756	1129.980820985772	762.043811696894	547.786782383692	1087.616300618649	639.875771865140	621.364733873308	1175.671635058176	603.481324626049	540.065486604397	1209.394885607344	523.221070923366	556.089139601727	1051.900168867307	721.978583248818	330.927182723620	932.985298219485	631.346607188555	265.826191518425	986.600743994892	535.812585387778	333.095404091440	968.634403425778	469.627056507545	343.533831941153	932.334854261737	404.732144524318	335.539348292244	827.258535020234	306.224408932169	280.982207810481	852.107097151733	190.039307153654	357.833855685308	1198.066301868668	434.726603124020	566.914185426495	1151.098385095396	318.493963277473	630.366063192110	1224.732769159125	236.186715423643	577.577029724201	1140.821959208077	47.347927998042	549.122123849980	1302.462902935143	124.510436992679	587.702908070762	1227.504044313098	44.851856383114	618.352629690696	1428.392881167611	89.962086897788	606.866729455239	702.528568123345	45.514287476163	392.937074369771	781.738907821192	38.031853446433	318.888348069081	864.780798197905	96.146793230893	350.229973339297	992.980150606387	39.332856161500	331.429240386214	1163.168274717375	1124.364927661749	106.706598429088	1395.825802834627	1152.249608970212	206.130998163330	914.501152875976	1118.594304836595	726.652991213822	880.093332945875	859.495449032321	740.577110552865	
22	36.280000000000	842.432701268040	1000.758327859361	448.678192451089	1053.821352802012	1420.352494735674	271.489485327580	1145.923506009233	1344.803742834608	436.591159923662	1057.697945875800	1427.701049756943	604.138344250295	1049.945421193740	1479.352053934988	423.145783644164	1062.584493140858	928.674310046372	576.678291833297	1059.171497558944	947.870540772716	299.703510739213	1132.346812050116	758.219756217361	549.059572921376	1087.243272183443	635.990171609255	621.485401350612	1175.436594094009	599.530654669893	540.496226207582	1207.376603732007	519.016063503569	555.280392041595	1052.015234836110	720.340008171183	331.232808753997	931.735445799246	630.837089146991	266.733782421751	984.998807154752	534.558461904649	333.282027752442	966.515815134583	468.011294066737	343.563002971862	929.041772879800	403.672060634345	335.651315746228	822.043339371603	306.940425867795	281.422169984004	845.668768118635	190.126971323738	357.703684225150	1196.015219339849	430.237097885999	566.063184644600	1148.137197548130	314.125427208668	628.738296022379	1221.422124547231	231.739503971855	575.905080762020	1136.053605089361	44.983713889126	546.620021098320	1298.210163305393	119.623844838254	585.886064114923	1221.911410358254	42.209769634460	616.868622661695	1423.540887722189	83.378905258036	606.691994726056	694.643821799823	46.889590266443	392.794068740486	773.842368856713	38.608729892487	318.825223506684	857.193043421406	96.409200921229	349.975704853160	984.976042544564	39.149090098038	331.324319255496	1162.415214488245	1123.505321196391	108.209198824987	1393.569560046283	1156.045199215743	209.087662357559	913.952523762194	1118.437285184096	728.710009400400	879.461769430804	859.082340329917	740.431636214247	
23	36.291428571429	844.998446765511	998.929345570636	451.748339961468	1052.885923998920	1419.211115303421	273.773151872197	1146.745807251252	1344.051722928025	438.177682363163	1059.177772879464	1426.347609044041	606.431373091116	1050.011457470647	1478.084931194992	425.504906703781	1066.148087790686	926.676932890302	577.868123588245	1060.968752625172	946.590964338443	301.612499668500	1135.203065718919	754.907171850239	550.185569049493	1087.521948212832	632.619817657997	621.355517580463	1175.832296050127	596.224828019732	540.627551312936	1206.054590257559	515.148202271804	554.151875732872	1052.616090385323	718.842339794400	331.545364790252	931.112424724001	630.271258955088	267.860945177806	984.332568426958	533.277582659197	333.533599737429	965.406146339590	466.215020667260	343.661463263158	926.526672936420	402.486212844185	335.867656566826	817.427687479926	307.815934646526	281.957229184557	839.575498115553	190.290441081715	357.561211863626	1194.267228457896	426.002341140037	564.931859122780	1145.133237056645	310.297762144394	627.130385810332	1217.329719393696	227.414474590402	574.067410428727	1129.312185988365	43.251886688724	544.484779068461	1292.401209532745	114.726453158031	583.902511722092	1214.465376343897	40.043216733260	615.644410865718	1417.040994613382	76.263224561677	606.237676100105	686.830070694668	48.632296740407	392.620083164808	765.995416102450	39.324406587357	318.739111607674	849.773076013299	96.735809644965	349.638497731335	976.998169056555	38.972640615813	331.217460305916	1160.982205591680	1122.317390335994	109.770650822242	1390.832251986274	1158.459315613463	211.906658188916	914.205154888610	1117.882719965193	730.808148671323	880.019462175288	858.184415688064	740.420289457373	
